<svg xmlns="http://www.w3.org/2000/svg" xmlns:xlink="http://www.w3.org/1999/xlink" viewBox="0 0 531.85 161.96"><defs><style>.cls-1{fill:url(#Neues_Verlaufsfeld_2);}.cls-2{fill:url(#Neues_Verlaufsfeld_2-2);}</style><linearGradient id="Neues_Verlaufsfeld_2" x1="5.07" y1="156.74" x2="155.12" y2="6.68" gradientUnits="userSpaceOnUse"><stop offset="0" stop-color="#00127f"/><stop offset="1" stop-color="#df0039"/></linearGradient><linearGradient id="Neues_Verlaufsfeld_2-2" x1="19.46" y1="171.13" x2="169.52" y2="21.07" xlink:href="#Neues_Verlaufsfeld_2"/></defs><title>Element 14</title><g id="Ebene_2" data-name="Ebene 2"><g id="Ebene_1-2" data-name="Ebene 1"><path class="cls-1" d="M134.54,0H80.83a80.93,80.93,0,0,0-69,38.56H123.24V150a80.92,80.92,0,0,0,38.57-69V0Z"/><path class="cls-2" d="M57.57,77.12h-.16L46.12,88.42h0L11.57,123l.06.1L0,134.69V162H27.27l18.85-18.85v11.06A80.79,80.79,0,0,0,80.83,162h3.85V104.55l.16-.16V77.12H57.57Z"/><path d="M248.47,92.55,241.62,77H217.7l-7,15.55H200.37l29.25-62.79,29.2,62.79ZM221.33,68.83h16.83L232,55.05q-.54-1.32-1.11-3c-.39-1.14-.78-2.42-1.16-3.82q-.49,2-1,3.69c-.37,1.15-.75,2.2-1.14,3.16Z"/><path d="M293,62.85a14,14,0,0,0-4.8-3.47,14.63,14.63,0,0,0-5.92-1.19,11.44,11.44,0,0,0-8.79,3.54,13.27,13.27,0,0,0-3.3,9.41q0,6.1,3.32,9.59t9.18,3.49A13.44,13.44,0,0,0,288.49,83,12.54,12.54,0,0,0,293,79.31V89.62a20.5,20.5,0,0,1-5.3,2.1,24.66,24.66,0,0,1-6,.71q-9.19,0-15-5.86t-5.79-15.18q0-9.45,6-15.25t15.7-5.79a24.62,24.62,0,0,1,5.61.6A18.27,18.27,0,0,1,293,52.78Z"/><path d="M331.35,62.85a14,14,0,0,0-4.81-3.47,14.6,14.6,0,0,0-5.92-1.19,11.44,11.44,0,0,0-8.79,3.54,13.27,13.27,0,0,0-3.3,9.41q0,6.1,3.33,9.59T321,84.22A13.37,13.37,0,0,0,326.85,83a12.57,12.57,0,0,0,4.5-3.69V89.62a20.5,20.5,0,0,1-5.3,2.1,24.81,24.81,0,0,1-6,.71q-9.19,0-15-5.86t-5.8-15.18q0-9.45,6-15.25T321,50.35a24.5,24.5,0,0,1,5.61.6,18.34,18.34,0,0,1,4.79,1.83Z"/><path d="M349.46,59.55a12.67,12.67,0,0,1,3.81-5.74A9.23,9.23,0,0,1,359.15,52a15.69,15.69,0,0,1,3.74.45,18.07,18.07,0,0,1,3.61,1.32l-3.22,7.59a8.42,8.42,0,0,0-2.5-1.22,10.67,10.67,0,0,0-3-.39,6.7,6.7,0,0,0-6.39,3.57q-1.95,3.57-1.94,12V92.43h-8.95V53.24h8.95Z"/><path d="M380.27,51.71v22c0,3.79.79,6.52,2.36,8.17s4.11,2.47,7.63,2.47,6.06-.82,7.63-2.47,2.35-4.38,2.35-8.17v-22h8.95V71.06q0,11.22-4.49,16.29t-14.36,5.08q-10,0-14.52-5t-4.5-16.33V51.71Z"/><path d="M458.08,92.43h-8.95V85.74a15.73,15.73,0,0,1-5.59,5,15.92,15.92,0,0,1-7.33,1.65q-8.29,0-13-5.68t-4.77-15.53q0-9.36,4.87-15.12a17.21,17.21,0,0,1,20.89-3.75,11.74,11.74,0,0,1,5,5.75V51.71h8.95Zm-8.71-21.29q0-6.06-2.82-9.45a10.91,10.91,0,0,0-15.89.11q-2.9,3.48-2.9,9.67t2.8,9.61a10.6,10.6,0,0,0,15.78-.29Q449.37,77.12,449.37,71.14Z"/><path d="M470.87,92.43v-62h8.95v62Z"/><path d="M209.62,134.94v27h-9.2V101.57h13.7a43.17,43.17,0,0,1,9.34.78,14.66,14.66,0,0,1,5.67,2.6,14.39,14.39,0,0,1,4.33,5.65,18.58,18.58,0,0,1,1.53,7.59q0,7.26-3.51,11.37t-10.35,4.93L241.92,162h-11.1l-20.09-27Zm.62-7.63H212q7.8,0,10.36-1.82t2.55-6.43c0-3.33-.91-5.67-2.74-7S217,110,212,110h-1.77Z"/><path d="M283.17,142.12H251.9q.33,5.49,3.26,8.56a10.26,10.26,0,0,0,7.8,3.07,13.34,13.34,0,0,0,7.22-1.81,15,15,0,0,0,5-5.86l7.55,4.21a22.78,22.78,0,0,1-8.17,8.78A21.91,21.91,0,0,1,263.16,162q-9.41,0-15-5.73t-5.57-15.31q0-9.19,5.76-15.12a19.72,19.72,0,0,1,14.78-5.92q9.45,0,14.73,5.41t5.28,15.14Zm-9.28-6a9.47,9.47,0,0,0-3.22-6.42,11.22,11.22,0,0,0-7.34-2.21,11,11,0,0,0-7.1,2.15,11.58,11.58,0,0,0-3.75,6.48Z"/><path d="M288,153.26l7.42-4a7.7,7.7,0,0,0,3.06,4.46,9.89,9.89,0,0,0,5.73,1.53,7.3,7.3,0,0,0,4.73-1.39,4.59,4.59,0,0,0,1.71-3.77c0-2.12-2-3.93-6.11-5.45-1.37-.49-2.43-.9-3.17-1.23q-6.28-2.61-8.77-5.28a9.2,9.2,0,0,1-2.5-6.52,10.34,10.34,0,0,1,4.11-8.5q4.1-3.25,10.87-3.26a16.82,16.82,0,0,1,7.77,1.67,10.26,10.26,0,0,1,4.73,4.77l-6.36,4.37a5.78,5.78,0,0,0-2.45-3,7.5,7.5,0,0,0-4.06-1.09,6.46,6.46,0,0,0-4.11,1.21,3.91,3.91,0,0,0-1.54,3.24q0,3.06,6.93,5.57c1.45.52,2.58.95,3.38,1.28q5.4,2.15,7.73,4.85a9.92,9.92,0,0,1,2.33,6.74,11,11,0,0,1-4.24,9.18Q310.93,162,303.47,162a19.17,19.17,0,0,1-9.53-2.14A14.6,14.6,0,0,1,288,153.26Z"/><path d="M366.13,142.12H334.86q.33,5.49,3.26,8.56a10.26,10.26,0,0,0,7.8,3.07,13.34,13.34,0,0,0,7.22-1.81,15,15,0,0,0,5-5.86l7.55,4.21a22.78,22.78,0,0,1-8.17,8.78A21.91,21.91,0,0,1,346.12,162q-9.4,0-15-5.73t-5.57-15.31q0-9.19,5.76-15.12a19.72,19.72,0,0,1,14.78-5.92q9.45,0,14.73,5.41t5.28,15.14Zm-9.28-6a9.47,9.47,0,0,0-3.22-6.42,11.22,11.22,0,0,0-7.34-2.21,11,11,0,0,0-7.1,2.15,11.58,11.58,0,0,0-3.75,6.48Z"/><path d="M412.25,162H403.3v-6.68A14.86,14.86,0,0,1,390.39,162q-8.29,0-13.06-5.67t-4.76-15.53q0-9.37,4.87-15.12a17.19,17.19,0,0,1,20.89-3.76,11.74,11.74,0,0,1,5,5.76v-6.4h8.95Zm-8.7-21.29q0-6.06-2.83-9.44a9.7,9.7,0,0,0-7.9-3.39,9.85,9.85,0,0,0-8,3.49q-2.91,3.48-2.91,9.67t2.81,9.62a10.6,10.6,0,0,0,15.78-.29Q403.55,146.65,403.55,140.67Z"/><path d="M433.58,129.08a12.71,12.71,0,0,1,3.82-5.73,9.23,9.23,0,0,1,5.88-1.86A15.12,15.12,0,0,1,447,122a17.85,17.85,0,0,1,3.61,1.32l-3.22,7.59a8.24,8.24,0,0,0-2.49-1.22,10.79,10.79,0,0,0-3-.39,6.7,6.7,0,0,0-6.39,3.57q-1.93,3.56-1.94,12V162h-8.95V122.77h8.95Z"/><path d="M484.94,132.38a14.07,14.07,0,0,0-4.8-3.46,14.64,14.64,0,0,0-5.92-1.2,11.42,11.42,0,0,0-8.79,3.55,13.24,13.24,0,0,0-3.3,9.4c0,4.08,1.11,7.27,3.32,9.6s5.27,3.48,9.18,3.48a13.22,13.22,0,0,0,5.81-1.22,12.49,12.49,0,0,0,4.5-3.69v10.32a21.24,21.24,0,0,1-5.3,2.1,24.67,24.67,0,0,1-6,.7q-9.19,0-15-5.86t-5.79-15.18q0-9.45,6-15.24t15.7-5.8a24.62,24.62,0,0,1,5.61.6,18.29,18.29,0,0,1,4.78,1.84Z"/><path d="M494.1,162v-61.7h8.42v29a16.79,16.79,0,0,1,6.31-5.9,19.18,19.18,0,0,1,8.83-1.86,18.1,18.1,0,0,1,7.44,1.38,10.87,10.87,0,0,1,4.81,4.11,11.23,11.23,0,0,1,1.48,3.75,42,42,0,0,1,.46,7.51V162h-9V141.87q0-7.71-1.88-10.25t-6.66-2.54a13,13,0,0,0-5.59,1.16,9.19,9.19,0,0,0-3.85,3.26,8.86,8.86,0,0,0-1.39,3.61,44.84,44.84,0,0,0-.39,7V162Z"/></g></g></svg>