<svg xmlns="http://www.w3.org/2000/svg" viewBox="0 0 136.38 29.8"><defs><style>.cls-1{fill:#fff;}</style></defs><title>Element 12</title><g id="Ebene_2" data-name="Ebene 2"><g id="Ebene_1-2" data-name="Ebene 1"><path class="cls-1" d="M48,18a4.56,4.56,0,0,1-1.87,3.13,7,7,0,0,1-4.07,1.1,7.25,7.25,0,0,1-3.36-.73,5.28,5.28,0,0,1-2.18-2.11,6.54,6.54,0,0,1-.8-3.29,6.56,6.56,0,0,1,.76-3.19,5.41,5.41,0,0,1,2.21-2.16A7,7,0,0,1,42.06,10q4.68,0,5.77,3.91l-2.09.31a3.59,3.59,0,0,0-1.32-1.9,4.15,4.15,0,0,0-2.36-.58A4,4,0,0,0,39,12.87a4.48,4.48,0,0,0-1.13,3.22A4.46,4.46,0,0,0,39,19.32a4.17,4.17,0,0,0,3.13,1.17,4.58,4.58,0,0,0,2.5-.61A3.14,3.14,0,0,0,45.86,18Z"/><path class="cls-1" d="M57.19,21.92V16.79a2.07,2.07,0,0,0-.48-1.56,2.33,2.33,0,0,0-1.63-.48,3.28,3.28,0,0,0-1.2.23,3.24,3.24,0,0,0-1,.64,2.19,2.19,0,0,0-.8,1.69v4.61h-2V10.26h2V14.8a4.47,4.47,0,0,1,3.59-1.63,3.69,3.69,0,0,1,2.61.83,3.21,3.21,0,0,1,.87,2.43v5.49Z"/><path class="cls-1" d="M68.25,21.92V20.7a4.93,4.93,0,0,1-1.64,1.1,5.43,5.43,0,0,1-2.07.35A4.17,4.17,0,0,1,62,21.48a2.28,2.28,0,0,1-.9-1.93,2.23,2.23,0,0,1,1.17-2.06,8,8,0,0,1,3.68-.76l2.26-.07v-.27c0-1.16-.76-1.74-2.29-1.74a4.51,4.51,0,0,0-1.71.27,1.35,1.35,0,0,0-.79.83l-1.75-.2A2.69,2.69,0,0,1,63,13.74a6.21,6.21,0,0,1,3-.57,4.79,4.79,0,0,1,3.08.81,3,3,0,0,1,1,2.5v5.44Zm0-4L66,18a6,6,0,0,0-2.21.37,1.05,1.05,0,0,0-.67,1,1.06,1.06,0,0,0,.51,1,2.7,2.7,0,0,0,1.45.33,4.35,4.35,0,0,0,1.34-.2,3.32,3.32,0,0,0,1.12-.58,1.59,1.59,0,0,0,.67-1.36Z"/><path class="cls-1" d="M72.53,12.17V10.24h2v1.93Zm0,9.75V13.43h2v8.49Z"/><path class="cls-1" d="M84.2,21.92V16.79a2,2,0,0,0-.51-1.56,2.32,2.32,0,0,0-1.63-.48,3.26,3.26,0,0,0-2.22.87,2.18,2.18,0,0,0-.77,1.66v4.64h-2V13.43H79v1.4a4.52,4.52,0,0,1,3.63-1.66,3.68,3.68,0,0,1,2.61.83,3.14,3.14,0,0,1,.89,2.43v5.49Z"/><path class="cls-1" d="M88.91,21.92V10.26H94.5a5.49,5.49,0,0,1,3.52,1A3.34,3.34,0,0,1,99.21,14,3.36,3.36,0,0,1,98,16.83a6,6,0,0,1-3.69.93H90.94v4.18ZM94.32,16a3.64,3.64,0,0,0,2.11-.48A1.87,1.87,0,0,0,97.12,14a1.77,1.77,0,0,0-.68-1.52A3.71,3.71,0,0,0,94.35,12H91v4.09Z"/><path class="cls-1" d="M107.93,21.92v-1.4a4.56,4.56,0,0,1-3.58,1.67,3.46,3.46,0,0,1-2.5-.84A3.07,3.07,0,0,1,101,19V13.43h2v5.19a2,2,0,0,0,.48,1.49,2.06,2.06,0,0,0,1.53.48,3.15,3.15,0,0,0,2.17-.84,2.19,2.19,0,0,0,.77-1.68V13.43h2v8.49Z"/><rect class="cls-1" x="112.46" y="10.26" width="1.92" height="11.66"/><path class="cls-1" d="M123.26,15.75a1.47,1.47,0,0,0-.82-.84,3.83,3.83,0,0,0-1.64-.27,4.23,4.23,0,0,0-1.65.26.8.8,0,0,0-.57.74.76.76,0,0,0,.18.56,1.4,1.4,0,0,0,.6.32,10,10,0,0,0,1.21.25l1.1.16a10,10,0,0,1,2.21.53,2.52,2.52,0,0,1,1.12.81,2.23,2.23,0,0,1,.33,1.23,2.2,2.2,0,0,1-1.09,2,6,6,0,0,1-3.21.69,6.16,6.16,0,0,1-3.24-.71,3,3,0,0,1-1.37-2.15h1.92a1.69,1.69,0,0,0,.85,1,4.21,4.21,0,0,0,1.82.31c1.59,0,2.4-.35,2.4-1.06a.73.73,0,0,0-.44-.7,6.1,6.1,0,0,0-1.63-.41l-1.1-.16a9.08,9.08,0,0,1-2.17-.54A2.33,2.33,0,0,1,117,17a2.35,2.35,0,0,1-.32-1.3,2.06,2.06,0,0,1,1.1-1.84,5.91,5.91,0,0,1,3-.67,6.33,6.33,0,0,1,2.94.56,2.91,2.91,0,0,1,1.38,1.83Z"/><path class="cls-1" d="M128.86,18.16a2.42,2.42,0,0,0,.83,1.87,3,3,0,0,0,2.08.7,3.47,3.47,0,0,0,1.65-.34,1.71,1.71,0,0,0,.89-1h1.93a3.31,3.31,0,0,1-1.48,2.09,5.82,5.82,0,0,1-3,.69A5,5,0,0,1,128.21,21a4.2,4.2,0,0,1-1.29-3.24,4.68,4.68,0,0,1,.61-2.37,4.1,4.1,0,0,1,1.67-1.63,5.28,5.28,0,0,1,2.53-.58,4.8,4.8,0,0,1,3.43,1.13,4.19,4.19,0,0,1,1.22,3.18v.68Zm5.64-1.3a2.16,2.16,0,0,0-.76-1.68,3.12,3.12,0,0,0-2-.59,3,3,0,0,0-1.92.61,2.41,2.41,0,0,0-.89,1.66Z"/><path class="cls-1" d="M4.7,12.86l8.84,8.84,4.75-4.76a2.87,2.87,0,0,0-4.07,0h0l-.67.68L8.78,12.86l4.07-4.08a2.89,2.89,0,0,0,0-4.08h0Z"/><path class="cls-1" d="M25.43,4.36a14.9,14.9,0,1,0,0,21.08,14.9,14.9,0,0,0,0-21.08Zm-2,19a12.38,12.38,0,0,1-2.28,1.8l-.1-.1A2.87,2.87,0,0,1,21,21h0l4.08-4.07L16.25,8.1l-4.76,4.76a2.89,2.89,0,0,0,4.08,0h0l.68-.68L21,16.94l-2,2a5.77,5.77,0,0,0-.6,7.43,12.4,12.4,0,0,1-3.47.51,12,12,0,1,1,8.49-3.52Z"/></g></g></svg>