<svg xmlns="http://www.w3.org/2000/svg" viewBox="0 0 88.26 74.41"><defs><style>.cls-1{fill:#fff;}</style></defs><title>Element 6</title><g id="Ebene_2" data-name="Ebene 2"><g id="Ebene_1-2" data-name="Ebene 1"><circle class="cls-1" cx="19.04" cy="28.82" r="14.19"/><path class="cls-1" d="M34.41,35.4a16.76,16.76,0,0,1-30.74,0A12.49,12.49,0,0,0,0,44.23V61.92A12.53,12.53,0,0,0,12.49,74.41H25.58a12.53,12.53,0,0,0,12.5-12.49V44.23A12.49,12.49,0,0,0,34.41,35.4Z"/><circle class="cls-1" cx="64.29" cy="28.27" r="14.19"/><path class="cls-1" d="M82.25,0H44.5c-3.3,0-6,1.68-6,3.73V16.55l-4.88,6.29,11-2.66h4.91a16.85,16.85,0,0,1,29.56,0h3.18c3.31,0,6-1.68,6-3.73V3.73C88.26,1.68,85.56,0,82.25,0Z"/><path class="cls-1" d="M79.66,34.85a16.76,16.76,0,0,1-30.74,0,12.49,12.49,0,0,0-3.67,8.83V61.36a12.54,12.54,0,0,0,12.5,12.5H70.84a12.53,12.53,0,0,0,12.49-12.5V43.68A12.45,12.45,0,0,0,79.66,34.85Z"/></g></g></svg>