<svg xmlns="http://www.w3.org/2000/svg" viewBox="0 0 86.45 70.24"><defs><style>.cls-1{fill:#fff;}</style></defs><title>Element 5</title><g id="Ebene_2" data-name="Ebene 2"><g id="Ebene_1-2" data-name="Ebene 1"><path class="cls-1" d="M0,0H29.31L33,.25,23.19,3.9s-4.33,1.36-3.77,7a23.64,23.64,0,0,0,3.83,10.21s4,4.7,9.71,4.76,19.36-3,19.36-3l19.1,16.94s4.33,4,1.06,8.35a6.54,6.54,0,0,1-7.86,2.23l-.62.51s.19,4.31-2.16,5.18-2.66,2.41-6.68.68a3.51,3.51,0,0,0-.93,2.78c.19,1.73-2,4.52-5.93,4.21S45.45,63,45.45,63l-.93,3.65S42.11,71,38.4,70.13a10,10,0,0,1-5.5-3.28L13.3,46.63l-8-8.41H0Z"/><path class="cls-1" d="M44.71,3.09,26,9.21s-1.6,4.95,2.48,7.92S38,18.49,38,18.49l16.51-2.41L72,31.85,77.86,38s2.22,5,1.91,6.43,6.68,0,6.68,0V6.37L73,10.2,56.46.25S49.22.25,44.71,3.09Z"/></g></g></svg>