<svg xmlns="http://www.w3.org/2000/svg" viewBox="0 0 145.2 22.55"><defs><style>.cls-1,.cls-2{fill:#fff;}.cls-1{stroke:#fff;stroke-miterlimit:10;stroke-width:0.25px;}</style></defs><title>Ebene 2</title><g id="Ebene_2" data-name="Ebene 2"><g id="Ebene_1-2" data-name="Ebene 1"><g id="Ebene_2-2" data-name="Ebene 2"><g id="Ebene_1-2-2" data-name="Ebene 1-2"><path class="cls-1" d="M45.11,10a5,5,0,0,1-.22,1.53,2.87,2.87,0,0,1-.62,1,2.63,2.63,0,0,1-1,.63,5.33,5.33,0,0,1-1.23.33,7.66,7.66,0,0,1-1.43.11H36.15v2.7a1.52,1.52,0,0,1-.07.52.29.29,0,0,1-.31.23.33.33,0,0,1-.37-.22,1.54,1.54,0,0,1-.09-.52V6.52a.78.78,0,0,1,0-.22.15.15,0,0,1,.08-.11.4.4,0,0,1,.15,0h5.21a7.26,7.26,0,0,1,1.47.15,5.37,5.37,0,0,1,1.18.43,2.74,2.74,0,0,1,.91.71,3.32,3.32,0,0,1,.56,1.07A5.43,5.43,0,0,1,45.11,10Zm-.84,0A4,4,0,0,0,44,8.35a2.24,2.24,0,0,0-1-1,4.54,4.54,0,0,0-1.61-.48,19.92,19.92,0,0,0-2.32-.12H36.15v6.31h2.94c.89,0,1.67,0,2.32-.09a4.54,4.54,0,0,0,1.62-.4,2,2,0,0,0,.94-.91A3.79,3.79,0,0,0,44.28,10Z"/><path class="cls-1" d="M53.47,16.66a9.64,9.64,0,0,0,2.68-.31,4,4,0,0,0,1.72-.92,3.52,3.52,0,0,0,.92-1.58,8.91,8.91,0,0,0,.26-2.24V6.81a1.5,1.5,0,0,1,.08-.47.32.32,0,0,1,.33-.22.46.46,0,0,1,.23.06.51.51,0,0,1,.13.16.79.79,0,0,1,.06.22v5a7.52,7.52,0,0,1-.4,2.62A4.15,4.15,0,0,1,58.29,16a4.92,4.92,0,0,1-2,1,12.45,12.45,0,0,1-5.63,0,4.88,4.88,0,0,1-2-1,4.19,4.19,0,0,1-1.21-1.78A7.61,7.61,0,0,1,47,11.6v-5a.81.81,0,0,1,.07-.22.36.36,0,0,1,.36-.22.32.32,0,0,1,.33.22,1.84,1.84,0,0,1,.07.47v4.78a8.09,8.09,0,0,0,.27,2.24,3.55,3.55,0,0,0,.93,1.6,4.09,4.09,0,0,0,1.72.94A9.78,9.78,0,0,0,53.47,16.66Z"/><path class="cls-1" d="M63.47,17.1h-.24a.19.19,0,0,1-.12,0,.12.12,0,0,1,0-.11V6.76a.92.92,0,0,1,.08-.43.35.35,0,0,1,.39-.19.29.29,0,0,1,.31.2,1.62,1.62,0,0,1,.07.44v9.69h8.45a.45.45,0,0,1,.3.1.33.33,0,0,1,.1.23.32.32,0,0,1-.1.22.41.41,0,0,1-.3.1Z"/><path class="cls-1" d="M87.05,14a2.64,2.64,0,0,1-.23,1.14,2.7,2.7,0,0,1-.63.87,4.08,4.08,0,0,1-1,.63A6.56,6.56,0,0,1,84,17a9.37,9.37,0,0,1-1.39.23c-.49,0-1,.06-1.48.06-.7,0-1.4,0-2.1-.11s-1.35-.16-2-.27-1.14-.23-1.59-.35a6.51,6.51,0,0,1-1.05-.36.41.41,0,0,1-.2-.17.37.37,0,0,1-.06-.21.36.36,0,0,1,.06-.2.25.25,0,0,1,.19-.09.32.32,0,0,1,.14,0,10.23,10.23,0,0,0,1.11.35c.47.12,1,.24,1.63.35s1.25.2,1.94.27a19.92,19.92,0,0,0,2,.11,13.1,13.1,0,0,0,1.88-.13,5.71,5.71,0,0,0,1.58-.44,2.83,2.83,0,0,0,1.08-.79A2,2,0,0,0,86.24,14a1.47,1.47,0,0,0-.34-1,2.38,2.38,0,0,0-.92-.65A6.36,6.36,0,0,0,83.62,12c-.52-.08-1.07-.14-1.65-.19s-1.19-.06-1.8-.06-1.22,0-1.8-.08a16,16,0,0,1-1.65-.23A5.39,5.39,0,0,1,75.36,11a2.59,2.59,0,0,1-1-.76,1.84,1.84,0,0,1-.34-1.16A2.59,2.59,0,0,1,74.28,8,2.59,2.59,0,0,1,75,7.12a3.34,3.34,0,0,1,1-.58,7.57,7.57,0,0,1,1.23-.37,13.1,13.1,0,0,1,1.4-.2c.49,0,1,0,1.47,0s1.21,0,1.81.08,1.14.13,1.66.22,1,.21,1.4.32a7,7,0,0,1,1,.35A.25.25,0,0,1,86,7a.29.29,0,0,1,0,.16.38.38,0,0,1-.09.25.3.3,0,0,1-.26.12.33.33,0,0,1-.17,0,9.34,9.34,0,0,0-1.16-.4A12.26,12.26,0,0,0,83,6.81c-.48-.08-1-.15-1.47-.19s-1-.06-1.49-.06a13.16,13.16,0,0,0-2,.12,6.62,6.62,0,0,0-1.65.39,3,3,0,0,0-1.14.77,1.8,1.8,0,0,0-.43,1.21,1.25,1.25,0,0,0,.34.9,2.6,2.6,0,0,0,.93.56,6.9,6.9,0,0,0,1.36.32,12.83,12.83,0,0,0,1.65.1H81a15.53,15.53,0,0,1,1.8.11,15.84,15.84,0,0,1,1.65.29,5,5,0,0,1,1.38.54,2.59,2.59,0,0,1,.92.85A2.27,2.27,0,0,1,87.05,14Z"/><path class="cls-1" d="M100.07,16.76a.54.54,0,0,1,0,.22.36.36,0,0,1-.14.1.44.44,0,0,1-.2,0H90.07a.1.1,0,0,1-.08-.05.17.17,0,0,1,0-.1V6.35a.23.23,0,0,1,0-.14.14.14,0,0,1,.1-.07h9.49a.85.85,0,0,1,.23,0,.37.37,0,0,1,.17.1.4.4,0,0,1,.06.22.3.3,0,0,1-.06.18.35.35,0,0,1-.17.09.85.85,0,0,1-.23,0h-8.8v4.29h8.48a1.13,1.13,0,0,1,.36.06.25.25,0,0,1,.15.26.28.28,0,0,1-.12.28.6.6,0,0,1-.32.07H90.79v4.71h8.82a.58.58,0,0,1,.23,0,.37.37,0,0,1,.17.1A.28.28,0,0,1,100.07,16.76Z"/><path class="cls-1" d="M114,13.89a3.07,3.07,0,0,1-.39,1.63,2.66,2.66,0,0,1-1.07,1A4.83,4.83,0,0,1,111,17a13,13,0,0,1-2,.12h-5.67a.3.3,0,0,1-.25-.09.33.33,0,0,1-.08-.25V6.5a.33.33,0,0,1,.11-.28.42.42,0,0,1,.27-.09h5.94a9.47,9.47,0,0,1,1.3.09,5.29,5.29,0,0,1,1.13.25,2.67,2.67,0,0,1,.9.47,2.18,2.18,0,0,1,.6.78,2.75,2.75,0,0,1,.21,1.14,2.89,2.89,0,0,1-.16,1,2.35,2.35,0,0,1-.39.67,2.18,2.18,0,0,1-.54.42,2.39,2.39,0,0,1-.58.22,2.77,2.77,0,0,1-.5.1l-.34,0h-.06a9.07,9.07,0,0,1,1.16.2,3.25,3.25,0,0,1,1,.46,2.16,2.16,0,0,1,.71.79A2.35,2.35,0,0,1,114,13.89Zm-1.42-5a2.11,2.11,0,0,0-.17-.89,1.39,1.39,0,0,0-.64-.65,4,4,0,0,0-1.32-.4,14.82,14.82,0,0,0-2.21-.14h-4.42V11h4.66a16.08,16.08,0,0,0,1.84-.08,4.38,4.38,0,0,0,1.28-.32,1.62,1.62,0,0,0,.74-.65A2.07,2.07,0,0,0,112.58,8.86Zm.58,5a1.83,1.83,0,0,0-.33-1.13,2.22,2.22,0,0,0-.94-.72,5.72,5.72,0,0,0-1.47-.4,15.66,15.66,0,0,0-1.94-.11h-4.66v4.93h5.54a8.16,8.16,0,0,0,2.09-.22,2.75,2.75,0,0,0,1.14-.58,1.52,1.52,0,0,0,.47-.81A4.47,4.47,0,0,0,113.16,13.89Z"/><path class="cls-1" d="M131.19,11.61a6.71,6.71,0,0,1-.44,2.51,4.17,4.17,0,0,1-1.32,1.78A5.9,5.9,0,0,1,127.18,17a15.07,15.07,0,0,1-6.48,0,5.94,5.94,0,0,1-2.26-1.06,4.29,4.29,0,0,1-1.31-1.78,6.7,6.7,0,0,1-.43-2.51,6.73,6.73,0,0,1,.42-2.51,4.31,4.31,0,0,1,1.32-1.78,5.83,5.83,0,0,1,2.25-1.06,15.39,15.39,0,0,1,6.48,0,5.83,5.83,0,0,1,2.25,1.06,4.34,4.34,0,0,1,1.33,1.78A6.92,6.92,0,0,1,131.19,11.61Zm-13.65,0a6.19,6.19,0,0,0,.39,2.34,3.73,3.73,0,0,0,1.19,1.58,5.13,5.13,0,0,0,2,.88,14.86,14.86,0,0,0,5.64,0,4.93,4.93,0,0,0,2-.88A3.58,3.58,0,0,0,129.93,14a6.2,6.2,0,0,0,.4-2.34,6.22,6.22,0,0,0-.4-2.33,3.63,3.63,0,0,0-1.19-1.58,5.21,5.21,0,0,0-2-.88,14.86,14.86,0,0,0-5.64,0,5.13,5.13,0,0,0-2,.88,3.79,3.79,0,0,0-1.19,1.58A6.21,6.21,0,0,0,117.54,11.61Z"/><path class="cls-1" d="M145.07,6.48c0,.14,0,.22-.14.25a1,1,0,0,1-.35,0h-5.51v9.88a.86.86,0,0,1-.06.23.41.41,0,0,1-.12.17.37.37,0,0,1-.23.05.31.31,0,0,1-.34-.22,1.22,1.22,0,0,1-.08-.5V6.77H132.7a1.23,1.23,0,0,1-.38,0,.23.23,0,0,1-.15-.25.34.34,0,0,1,.07-.22.42.42,0,0,1,.18-.11.85.85,0,0,1,.23,0h12a.83.83,0,0,1,.22,0,.33.33,0,0,1,.15.11A.29.29,0,0,1,145.07,6.48Z"/><path class="cls-2" d="M11.47,21.37a.87.87,0,0,1,.44-.74A7.25,7.25,0,1,0,4.77,8a7.16,7.16,0,0,0-2.66,2.61,1,1,0,0,1-.81.45H.2A11.07,11.07,0,0,1,11.27.2a11.52,11.52,0,0,1,2.55.28,10.93,10.93,0,0,1,8.25,8.25,11.19,11.19,0,0,1-2.15,9.47,11,11,0,0,1-8.45,4.15Z"/><path class="cls-2" d="M11.27.4a11.76,11.76,0,0,1,2.51.27,10.71,10.71,0,0,1,8.09,8.1,11,11,0,0,1-2.09,9.3,10.82,10.82,0,0,1-8.11,4.09v-.79A.64.64,0,0,1,12,20.8,7.44,7.44,0,1,0,1.94,10.52a.77.77,0,0,1-.64.37H.4A10.87,10.87,0,0,1,11.27.4m0-.4A11.28,11.28,0,0,0,0,11.27v0H1.3a1.17,1.17,0,0,0,1-.57,7,7,0,1,1,9.52,9.74,1.06,1.06,0,0,0-.53.9v1.18a11.28,11.28,0,0,0,11.28-11.3,11.53,11.53,0,0,0-.29-2.55A11.06,11.06,0,0,0,13.85.29,11.8,11.8,0,0,0,11.27,0Z"/><circle class="cls-2" cx="8.1" cy="14.47" r="4.03"/><path class="cls-2" d="M8.1,10.63a3.84,3.84,0,1,1-3.83,3.84h0A3.84,3.84,0,0,1,8.1,10.63m0-.39a4.23,4.23,0,1,0,4.23,4.23h0A4.23,4.23,0,0,0,8.1,10.24Z"/></g></g></g></g></svg>